<svg width="367" height="304" viewBox="0 0 367 304" fill="none" xmlns="http://www.w3.org/2000/svg">
<g id="S-full-frame">
<g id="s-single">
<path id="Vector" d="M288.651 148.5C288.833 143.489 287.64 138.524 285.199 134.144C283.049 130.455 279.782 127.545 275.871 125.837C272.005 124.23 267.855 123.424 263.67 123.466H144.27L143.206 121.991L151.247 97.1987L155.202 95.2198H308.949L327.605 38H141.583C137.738 38.2105 134.006 39.3784 130.725 41.3977C126.662 43.6604 122.847 46.3449 119.345 49.4067C115.674 52.5995 112.325 56.1449 109.345 59.9919C106.595 63.3619 104.5 67.2184 103.17 71.3612L82.5363 135.096C80.1127 141.678 78.8013 148.619 78.6557 155.632C78.5918 160.633 79.8398 165.564 82.2751 169.932C84.4808 173.678 87.8476 176.601 91.8644 178.258C95.7858 179.85 99.9832 180.65 104.215 180.611H223.092L223.764 181.88L216.302 205.758L212.179 208.857H58.6562L40 266.076H226.283C230.204 265.916 234.016 264.739 237.346 262.66C241.304 260.396 245.001 257.704 248.372 254.632C251.946 251.444 255.184 247.897 258.036 244.047C260.676 240.576 262.8 236.74 264.341 232.659L284.994 168.887C287.185 162.302 288.417 155.436 288.651 148.5V148.5Z" fill="url(#paint0_linear)"/>
</g>
</g>
<defs>
<linearGradient id="paint0_linear" x1="146877" y1="192375" x2="147432" y2="250375" gradientUnits="userSpaceOnUse">
<stop stop-color="#1572CE"/>
<stop offset="1" stop-color="#2357B5"/>
</linearGradient>
</defs>
</svg>
